<svg width="64" height="64" viewBox="0 0 64 64" fill="none" xmlns="http://www.w3.org/2000/svg">
<path d="M56.3749 3.97938C46.4804 2.04042 15.5715 2.42841 6.6665 3.97958M60.0853 5.91857C60.6333 22.5276 61.5892 52.1169 61.268 61.3331M58.6665 61.3333C54.8998 57.5506 19.8544 56.6047 12.3209 56.6047C4.78753 56.6047 2.85133 57.8157 3.84586 52.822C4.66273 48.7203 4.06792 22.084 2.6665 5.01301" stroke="#3F9F90" stroke-width="3" stroke-linecap="round"/>
<path d="M50.6668 19.9995C47.8858 14.4362 42.6668 18.6666 42.6668 23.9995V45.3335C42.6668 50.6668 46.6668 50.6667 48.0002 50.6658C54.6668 50.6667 52.0002 22.6668 50.6668 19.9995Z" stroke="#0191B5" stroke-width="3" stroke-linecap="round"/>
<path d="M19.9542 33.4696C17.6527 30.3498 13.3335 32.7221 13.3335 35.7127V47.6764C13.3335 50.6672 16.6438 50.6671 17.7473 50.6666C23.2645 50.6671 21.0576 34.9654 19.9542 33.4696Z" stroke="#0191B5" stroke-width="3" stroke-linecap="round"/>
<path d="M35.4944 13.8158C32.4257 7.13052 26.6668 12.2141 26.6668 18.6225V44.2589C26.6668 50.6678 31.0806 50.6676 32.5519 50.6666C39.9082 50.6676 36.9657 17.021 35.4944 13.8158Z" stroke="#0191B5" stroke-width="3" stroke-linecap="round"/>
</svg>
