<svg width="225" height="225" viewBox="0 0 225 225" fill="none" xmlns="http://www.w3.org/2000/svg">
<path d="M97.5538 215.625C73.9409 200.534 -11.2593 150.205 14.0096 107.706C45.5957 54.5834 89.9707 -5.59513 125.175 12.7363C160.379 31.0676 233.707 87.2569 211.52 117.346C193.77 141.418 157.789 192.509 137.452 210.595" stroke="#F1F1F1" stroke-width="5" stroke-linecap="round"/>
<path d="M106.27 165.523C108.996 168.822 113.483 169.771 117.181 167.531C120.807 165.335 122.532 160.765 121.646 156.497M106.27 165.523C105.781 164.931 105.349 164.265 104.989 163.527C102.615 158.675 104.226 152.6 108.587 149.96C112.948 147.319 118.406 149.111 120.78 153.964C121.179 154.781 121.466 155.633 121.646 156.497M106.27 165.523C110.243 167.116 118.88 167.541 121.646 156.497M109.857 130.814C103.964 102.49 97.6246 56.25 111.271 56.25C124.917 56.25 118.577 102.49 112.685 130.814C112.294 132.692 110.248 132.692 109.857 130.814Z" stroke="#CF6038" stroke-width="5" stroke-linecap="round"/>
</svg>
