<svg width="416" height="416" viewBox="0 0 416 416" fill="none" xmlns="http://www.w3.org/2000/svg">
<path d="M61.3897 301.801C60.5405 289.756 51.0373 262.943 28.5511 274.626C12.4147 283.01 16.0007 300.934 24.871 309.607M54.0319 317.991C47.8037 309.896 21.8732 314.982 27.7043 337.939C30.8527 350.334 54.598 356.923 65.6386 350.659M32.1268 374.546C36.0901 378.593 46.6778 384.895 57.322 377.726M105.841 368.006C102.915 362.32 94.1206 353.956 82.3439 365.982C67.6232 381.015 88.2889 394.602 94.8 393.157M127.071 358.465C135.941 360.585 154.764 369.614 150.568 387.085C146.888 402.407 128.203 399.709 118.578 394.891M102.719 302.959C102.04 304.115 82.2422 316.739 72.4284 322.906M121.406 323.777L103.005 351.82" stroke="white" stroke-width="4" stroke-linecap="round"/>
<path d="M158.251 147.378L159.866 148.558C160.276 147.998 160.365 147.265 160.103 146.623C159.841 145.98 159.265 145.519 158.58 145.405L158.251 147.378ZM70.4929 176.379L69.0643 174.979V174.979L70.4929 176.379ZM49.0269 208.601L47.1931 207.803C46.8973 208.482 47.0014 209.27 47.4639 209.849C47.9263 210.428 48.6711 210.704 49.3994 210.566L49.0269 208.601ZM124.158 207.312L123.902 209.296C124.789 209.41 125.644 208.922 125.996 208.1L124.158 207.312ZM211.601 374.546L209.65 374.105C209.483 374.846 209.749 375.617 210.338 376.096C210.926 376.576 211.736 376.681 212.427 376.367L211.601 374.546ZM243.168 352.634L241.74 351.234C241.732 351.243 241.724 351.251 241.716 351.259L243.168 352.634ZM271.579 263.055L273.555 262.742C273.445 262.05 272.981 261.465 272.332 261.202C271.682 260.938 270.942 261.034 270.381 261.454L271.579 263.055ZM212.863 297.533L212.072 295.696C211.255 296.048 210.768 296.898 210.879 297.781L212.863 297.533ZM131.425 273.046L129.996 271.647V271.647L131.425 273.046ZM194.56 208.601L195.989 210V210L194.56 208.601ZM211.607 226.001L213.035 227.401V227.401L211.607 226.001ZM148.471 290.447L147.043 289.047V289.047L148.471 290.447ZM189.922 247.744C189.115 246.99 187.849 247.032 187.095 247.838C186.34 248.645 186.382 249.91 187.189 250.665L188.555 249.205L189.922 247.744ZM236.172 286.706C237.13 287.256 238.352 286.927 238.903 285.969C239.454 285.012 239.124 283.789 238.167 283.238L237.169 284.972L236.172 286.706ZM138.547 181.224C138.018 180.254 136.804 179.895 135.834 180.423C134.864 180.951 134.505 182.166 135.033 183.136L136.79 182.18L138.547 181.224ZM170.342 233.14C171.08 233.961 172.345 234.029 173.166 233.291C173.988 232.553 174.056 231.289 173.318 230.467L171.83 231.803L170.342 233.14ZM172.869 265.129C172.056 264.381 170.791 264.433 170.043 265.245C169.294 266.058 169.346 267.323 170.159 268.071L171.514 266.6L172.869 265.129ZM212.236 297.857L211.164 299.545L212.065 300.117L213.042 299.687L212.236 297.857ZM311.209 230.944C311.982 230.155 311.969 228.889 311.18 228.116C310.391 227.343 309.125 227.356 308.352 228.145L309.78 229.544L311.209 230.944ZM190.77 108.064L189.345 106.661L189.341 106.665L190.77 108.064ZM152.985 250.543C153.727 251.362 154.992 251.424 155.81 250.682C156.629 249.94 156.691 248.676 155.949 247.857L154.467 249.2L152.985 250.543ZM335.122 197.238C334.452 198.116 334.62 199.371 335.499 200.041C336.377 200.711 337.632 200.542 338.302 199.664L336.712 198.451L335.122 197.238ZM398.486 17.5183L400.484 17.4378L400.41 15.5972L398.57 15.52L398.486 17.5183ZM308.858 29.5738C307.815 29.9374 307.264 31.0777 307.628 32.1207C307.992 33.1637 309.132 33.7145 310.175 33.3509L309.516 31.4623L308.858 29.5738ZM285.926 43.1079C286.931 42.6487 287.373 41.4621 286.914 40.4575C286.455 39.4529 285.268 39.0107 284.264 39.4699L285.095 41.2889L285.926 43.1079ZM325.071 26.1675C324.508 25.2171 323.282 24.9031 322.331 25.466C321.381 26.029 321.067 27.2557 321.63 28.2061L323.351 27.1868L325.071 26.1675ZM352.393 64.8874L353.822 63.4878L353.812 63.4778L353.802 63.4678L352.393 64.8874ZM388.289 95.9194C389.233 96.493 390.463 96.1927 391.036 95.2487C391.61 94.3047 391.31 93.0745 390.366 92.5009L389.327 94.2102L388.289 95.9194ZM214.782 346.242L212.783 346.169L214.782 346.242ZM250.8 343.943L252.373 345.178V345.178L250.8 343.943ZM257.076 335.026L258.77 336.089V336.089L257.076 335.026ZM214.768 323.777L212.769 323.845L214.768 323.777ZM268.18 310.898L270.089 311.493V311.493L268.18 310.898ZM213.909 309.454L211.913 309.593L213.909 309.454ZM213.41 302.959L211.417 303.13L213.41 302.959ZM270.312 302.959L272.262 303.401L270.312 302.959ZM271.772 295.134L273.751 295.425L271.772 295.134ZM221.943 293.409L221.08 291.604V291.604L221.943 293.409ZM231.526 288.496L230.587 286.73L231.526 288.496ZM258.682 272.241L257.562 270.584V270.584L258.682 272.241ZM272.631 272.241L274.626 272.099L272.631 272.241ZM54.5556 197.548L52.8187 196.557L54.5556 197.548ZM59.9052 189.114L58.2689 187.964H58.2689L59.9052 189.114ZM65.2327 182.18L63.7003 180.895V180.895L65.2327 182.18ZM75.9116 171.228L74.5866 169.73L75.9116 171.228ZM89.4912 161.091L88.433 159.394V159.394L89.4912 161.091ZM97.0465 156.823L96.1393 155.041V155.041L97.0465 156.823ZM135.281 184.085L137.047 185.023V185.023L135.281 184.085ZM117.465 149.121L116.969 147.183L117.465 149.121ZM125.734 147.378L125.405 145.405L125.734 147.378ZM146.687 164.063L148.383 165.122V165.122L146.687 164.063ZM150.146 158.642L151.821 159.734V159.734L150.146 158.642ZM131.425 290.447L132.853 289.047C128.88 284.991 128.88 278.502 132.853 274.446L131.425 273.046L129.996 271.647C124.499 277.258 124.499 286.235 129.996 291.846L131.425 290.447ZM131.425 273.046L132.853 274.446L195.989 210L194.56 208.601L193.131 207.201L129.996 271.647L131.425 273.046ZM194.56 208.601L195.989 210C199.94 205.967 206.227 205.967 210.178 210L211.607 208.601L213.035 207.201C207.516 201.567 198.651 201.567 193.131 207.201L194.56 208.601ZM211.607 208.601L210.178 210C214.151 214.056 214.151 220.546 210.178 224.601L211.607 226.001L213.035 227.401C218.532 221.79 218.532 212.812 213.035 207.201L211.607 208.601ZM211.607 226.001L210.178 224.601L147.043 289.047L148.471 290.447L149.9 291.846L213.035 227.401L211.607 226.001ZM148.471 290.447L147.043 289.047C143.092 293.08 136.804 293.08 132.853 289.047L131.425 290.447L129.996 291.846C135.515 297.48 144.38 297.48 149.9 291.846L148.471 290.447ZM312.986 140.398H310.986C310.986 159.43 295.89 174.786 277.355 174.786V176.786V178.786C298.178 178.786 314.986 161.559 314.986 140.398H312.986ZM277.355 176.786V174.786C258.82 174.786 243.724 159.43 243.724 140.398H241.724H239.724C239.724 161.559 256.532 178.786 277.355 178.786V176.786ZM241.724 140.398H243.724C243.724 121.367 258.82 106.011 277.355 106.011V104.011V102.011C256.532 102.011 239.724 119.238 239.724 140.398H241.724ZM277.355 104.011V106.011C295.89 106.011 310.986 121.367 310.986 140.398H312.986H314.986C314.986 119.238 298.178 102.011 277.355 102.011V104.011ZM188.555 249.205L187.189 250.665C202.463 264.958 218.689 276.647 236.172 286.706L237.169 284.972L238.167 283.238C220.925 273.319 204.952 261.808 189.922 247.744L188.555 249.205ZM136.79 182.18L135.033 183.136C144.576 200.669 156.345 217.553 170.342 233.14L171.83 231.803L173.318 230.467C159.535 215.119 147.945 198.492 138.547 181.224L136.79 182.18ZM171.514 266.6L170.159 268.071C183.192 280.078 196.862 290.461 211.164 299.545L212.236 297.857L213.308 296.168C199.199 287.207 185.721 276.968 172.869 265.129L171.514 266.6ZM123.846 207.633L122.139 208.674C131.027 223.255 141.202 237.54 152.985 250.543L154.467 249.2L155.949 247.857C144.372 235.082 134.344 221.011 125.554 206.592L123.846 207.633ZM336.712 198.451L338.302 199.664C381.496 143.07 402.891 77.2206 400.484 17.4378L398.486 17.5183L396.487 17.5987C398.852 76.3447 377.818 141.296 335.122 197.238L336.712 198.451ZM398.486 17.5183L398.57 15.52C369.478 14.2996 338.983 19.0715 308.858 29.5738L309.516 31.4623L310.175 33.3509C339.868 22.999 369.86 18.3192 398.402 19.5165L398.486 17.5183ZM285.095 41.2889L284.264 39.4699C250.724 54.8007 218.245 77.3131 189.345 106.661L190.77 108.064L192.195 109.468C220.763 80.4568 252.842 58.2304 285.926 43.1079L285.095 41.2889ZM323.351 27.1868L321.63 28.2061C329.912 42.1883 339.484 54.8943 350.984 66.307L352.393 64.8874L353.802 63.4678C342.573 52.3246 333.204 39.8968 325.071 26.1675L323.351 27.1868ZM352.393 64.8874L350.964 66.2871C362.447 78.0085 374.89 87.7788 388.289 95.9194L389.327 94.2102L390.366 92.5009C377.247 84.5302 365.067 74.9668 353.822 63.4878L352.393 64.8874ZM213.589 362.534L211.603 362.301C211.11 366.505 210.468 370.484 209.65 374.105L211.601 374.546L213.552 374.986C214.407 371.196 215.071 367.074 215.575 362.767L213.589 362.534ZM211.601 374.546L212.427 376.367C217.788 373.935 223.09 371.075 228.169 367.719L227.067 366.05L225.964 364.381C221.08 367.609 215.966 370.369 210.774 372.724L211.601 374.546ZM213.589 362.534L213.084 364.469L226.562 367.985L227.067 366.05L227.572 364.115L214.094 360.599L213.589 362.534ZM214.295 355.104L212.301 354.955C212.114 357.456 211.882 359.913 211.603 362.301L213.589 362.534L215.575 362.767C215.862 360.317 216.099 357.804 216.29 355.254L214.295 355.104ZM227.067 366.05L228.169 367.719C231.735 365.363 235.192 362.762 238.484 359.893L237.169 358.385L235.855 356.878C232.707 359.622 229.393 362.116 225.964 364.381L227.067 366.05ZM237.169 358.385L238.484 359.893C240.603 358.045 242.654 356.086 244.621 354.009L243.168 352.634L241.716 351.259C239.841 353.239 237.882 355.11 235.855 356.878L237.169 358.385ZM214.295 355.104L214.011 357.084L236.885 360.365L237.169 358.385L237.453 356.406L214.579 353.124L214.295 355.104ZM214.782 346.242L212.783 346.169C212.675 349.128 212.517 352.07 212.301 354.955L214.295 355.104L216.29 355.254C216.51 352.312 216.671 349.319 216.781 346.315L214.782 346.242ZM243.168 352.634L244.597 354.034C245.398 353.216 246.183 352.389 246.953 351.552L245.481 350.198L244.009 348.845C243.268 349.65 242.511 350.447 241.74 351.234L243.168 352.634ZM214.782 346.242L214.527 348.226L245.225 352.182L245.481 350.198L245.736 348.215L215.038 344.259L214.782 346.242ZM245.481 350.198L246.953 351.552C248.857 349.482 250.664 347.356 252.373 345.178L250.8 343.943L249.227 342.708C247.582 344.804 245.842 346.851 244.009 348.845L245.481 350.198ZM214.955 338.666L212.955 338.646C212.93 341.15 212.875 343.665 212.783 346.169L214.782 346.242L216.781 346.315C216.874 343.773 216.93 341.222 216.955 338.686L214.955 338.666ZM250.8 343.943L251.092 341.964L215.246 336.687L214.955 338.666L214.664 340.645L250.509 345.922L250.8 343.943ZM214.927 330.15L212.927 330.182C212.971 332.963 212.983 335.797 212.955 338.646L214.955 338.666L216.955 338.686C216.983 335.799 216.971 332.931 216.926 330.118L214.927 330.15ZM250.8 343.943L252.373 345.178C254.683 342.237 256.815 339.203 258.77 336.089L257.076 335.026L255.382 333.962C253.502 336.958 251.45 339.877 249.227 342.708L250.8 343.943ZM214.927 330.15L214.697 332.136L256.846 337.013L257.076 335.026L257.306 333.039L215.156 328.163L214.927 330.15ZM257.076 335.026L258.77 336.089C260.531 333.283 262.149 330.413 263.622 327.488L261.836 326.589L260.049 325.689C258.632 328.502 257.077 331.263 255.382 333.962L257.076 335.026ZM214.768 323.777L212.769 323.845C212.839 325.915 212.892 328.033 212.927 330.182L214.927 330.15L216.926 330.118C216.892 327.944 216.837 325.803 216.767 323.71L214.768 323.777ZM261.836 326.589L261.955 324.592L214.887 321.781L214.768 323.777L214.648 325.774L261.716 328.585L261.836 326.589ZM214.295 315.393L212.299 315.514C212.494 318.703 212.652 320.392 212.769 323.845L214.768 323.777L216.767 323.71C216.648 320.185 216.481 318.369 216.292 315.271L214.295 315.393ZM261.836 326.589L263.622 327.488C265.07 324.612 266.379 321.683 267.549 318.711L265.687 317.979L263.826 317.246C262.702 320.105 261.442 322.922 260.049 325.689L261.836 326.589ZM214.295 315.393L214.195 317.39L265.587 319.976L265.687 317.979L265.788 315.981L214.396 313.395L214.295 315.393ZM265.687 317.979L267.549 318.711C268.485 316.331 269.332 313.924 270.089 311.493L268.18 310.898L266.27 310.303C265.542 312.642 264.727 314.957 263.826 317.246L265.687 317.979ZM213.909 309.454L211.913 309.593C212.05 311.558 212.18 313.566 212.299 315.514L214.295 315.393L216.292 315.271C216.172 313.312 216.042 311.293 215.904 309.315L213.909 309.454ZM268.18 310.898L268.233 308.899L213.962 307.455L213.909 309.454L213.855 311.453L268.126 312.898L268.18 310.898ZM212.863 297.533L210.879 297.781C211.056 299.195 211.238 301.035 211.417 303.13L213.41 302.959L215.403 302.788C215.221 300.672 215.034 298.774 214.848 297.285L212.863 297.533ZM213.41 302.959L211.417 303.13C211.588 305.12 211.755 307.326 211.913 309.593L213.909 309.454L215.904 309.315C215.745 307.034 215.576 304.805 215.403 302.788L213.41 302.959ZM268.18 310.898L270.089 311.493C270.922 308.821 271.646 306.122 272.262 303.401L270.312 302.959L268.361 302.517C267.768 305.135 267.071 307.733 266.27 310.303L268.18 310.898ZM213.41 302.959V304.959H270.312V302.959V300.959H213.41V302.959ZM270.312 302.959L272.262 303.401C272.86 300.76 273.357 298.1 273.751 295.425L271.772 295.134L269.794 294.842C269.414 297.416 268.937 299.976 268.361 302.517L270.312 302.959ZM221.943 293.409L221.08 291.604C218.091 293.033 215.089 294.397 212.072 295.696L212.863 297.533L213.654 299.37C216.719 298.05 219.77 296.664 222.805 295.213L221.943 293.409ZM271.772 295.134L271.842 293.135L222.012 291.41L221.943 293.409L221.873 295.408L271.703 297.133L271.772 295.134ZM212.236 297.857L213.042 299.687C219.557 296.82 226.038 293.677 232.464 290.262L231.526 288.496L230.587 286.73C224.247 290.099 217.855 293.199 211.43 296.026L212.236 297.857ZM231.526 288.496L232.464 290.262C260.218 275.514 286.974 255.682 311.209 230.944L309.78 229.544L308.352 228.145C284.398 252.595 257.971 272.179 230.587 286.73L231.526 288.496ZM271.772 295.134L273.751 295.425C274.082 293.18 274.342 290.924 274.529 288.661L272.536 288.496L270.543 288.33C270.362 290.509 270.113 292.68 269.794 294.842L271.772 295.134ZM231.526 288.496V290.496H272.536V288.496V286.496H231.526V288.496ZM272.536 288.496L274.529 288.661C274.715 286.423 274.83 284.178 274.875 281.93L272.876 281.889L270.876 281.849C270.833 284.014 270.722 286.175 270.543 288.33L272.536 288.496ZM245.481 280.687L244.447 278.975C236.753 283.62 228.964 287.836 221.08 291.604L221.943 293.409L222.805 295.213C230.812 291.386 238.715 287.108 246.514 282.4L245.481 280.687ZM272.876 281.889L272.963 279.891L245.568 278.689L245.481 280.687L245.393 282.686L272.788 283.888L272.876 281.889ZM271.579 263.055L270.381 261.454C266.139 264.629 261.866 267.674 257.562 270.584L258.682 272.241L259.803 273.897C264.161 270.95 268.486 267.868 272.778 264.656L271.579 263.055ZM258.682 272.241L257.562 270.584C253.222 273.519 248.85 276.317 244.447 278.975L245.481 280.687L246.514 282.4C250.978 279.705 255.407 276.87 259.803 273.897L258.682 272.241ZM272.876 281.889L274.875 281.93C274.941 278.656 274.858 275.376 274.626 272.099L272.631 272.241L270.636 272.382C270.859 275.538 270.939 278.697 270.876 281.849L272.876 281.889ZM272.631 272.241L274.626 272.099C274.404 268.974 274.047 265.852 273.555 262.742L271.579 263.055L269.604 263.367C270.078 266.364 270.422 269.372 270.636 272.382L272.631 272.241ZM258.682 272.241V274.241H272.631V272.241V270.241H258.682V272.241ZM54.5556 197.548L52.8187 196.557C50.7249 200.225 48.8572 203.981 47.1931 207.803L49.0269 208.601L50.8606 209.4C52.4702 205.703 54.274 202.076 56.2925 198.54L54.5556 197.548ZM49.0269 208.601L49.3994 210.566C55.2488 209.457 61.3494 208.599 67.6712 208.003L67.4837 206.012L67.2961 204.021C60.8564 204.627 54.6322 205.503 48.6544 206.636L49.0269 208.601ZM54.5556 197.548L53.4601 199.222L66.3882 207.685L67.4837 206.012L68.5791 204.339L55.6511 195.875L54.5556 197.548ZM59.9052 189.114L58.2689 187.964C56.3011 190.764 54.4881 193.632 52.8187 196.557L54.5556 197.548L56.2925 198.54C57.902 195.721 59.6481 192.958 61.5415 190.264L59.9052 189.114ZM67.4837 206.012L67.6712 208.003C71.3058 207.661 75.0133 207.406 78.788 207.24L78.7003 205.242L78.6126 203.244C74.7728 203.412 70.9987 203.672 67.2961 204.021L67.4837 206.012ZM59.9052 189.114L58.6028 190.632L77.3979 206.76L78.7003 205.242L80.0027 203.724L61.2076 187.597L59.9052 189.114ZM70.4929 176.379L69.0643 174.979C67.1798 176.903 65.3934 178.876 63.7003 180.895L65.2327 182.18L66.7651 183.465C68.3927 181.525 70.11 179.627 71.9216 177.778L70.4929 176.379ZM65.2327 182.18L63.7003 180.895C61.7707 183.196 59.9626 185.555 58.2689 187.964L59.9052 189.114L61.5415 190.264C63.1711 187.946 64.91 185.677 66.7651 183.465L65.2327 182.18ZM78.7003 205.242L78.788 207.24C82.2988 207.086 85.8675 207.009 89.4897 207.012L89.4912 205.012L89.4927 203.012C85.8121 203.009 82.1838 203.087 78.6126 203.244L78.7003 205.242ZM65.2327 182.18L63.8619 183.636L88.1205 206.468L89.4912 205.012L90.8619 203.555L66.6034 180.724L65.2327 182.18ZM89.4912 205.012L89.4897 207.012C92.3233 207.014 95.1895 207.065 98.0861 207.165L98.1552 205.166L98.2244 203.167C95.2832 203.065 92.3719 203.014 89.4927 203.012L89.4912 205.012ZM98.1552 205.166L99.5973 203.78L71.935 174.993L70.4929 176.379L69.0508 177.764L96.7131 206.552L98.1552 205.166ZM75.9116 171.228L74.5866 169.73C72.6998 171.399 70.8576 173.148 69.0643 174.979L70.4929 176.379L71.9216 177.778C73.6483 176.016 75.4214 174.332 77.2366 172.726L75.9116 171.228ZM98.1552 205.166L98.0861 207.165C101.444 207.281 104.843 207.464 108.279 207.714L108.424 205.72L108.57 203.725C105.084 203.471 101.634 203.285 98.2244 203.167L98.1552 205.166ZM75.9116 171.228L74.4562 172.6L106.969 207.091L108.424 205.72L109.88 204.348L77.3669 169.856L75.9116 171.228ZM108.424 205.72L108.279 207.714C110.778 207.897 113.296 208.115 115.833 208.37L116.033 206.38L116.233 204.39C113.66 204.131 111.105 203.91 108.57 203.725L108.424 205.72ZM116.033 206.38L115.833 208.37C118.503 208.638 121.193 208.946 123.902 209.296L124.158 207.312L124.414 205.329C121.668 204.974 118.94 204.662 116.233 204.39L116.033 206.38ZM81.9425 166.288L80.7351 164.694C78.639 166.281 76.5878 167.96 74.5866 169.73L75.9116 171.228L77.2366 172.726C79.1619 171.023 81.1347 169.409 83.15 167.883L81.9425 166.288ZM116.033 206.38L117.557 205.084L83.4662 164.993L81.9425 166.288L80.4189 167.584L114.509 207.675L116.033 206.38ZM89.4912 161.091L88.433 159.394C85.8089 161.03 83.24 162.797 80.7351 164.694L81.9425 166.288L83.15 167.883C85.5584 166.059 88.0277 164.361 90.5494 162.788L89.4912 161.091ZM89.4912 161.091L87.8821 162.279L122.237 208.821L123.846 207.633L125.455 206.445L91.1003 159.903L89.4912 161.091ZM127.907 198.602L126.095 197.754C124.682 200.775 123.32 203.804 122.01 206.841L123.846 207.633L125.683 208.425C126.977 205.426 128.322 202.433 129.718 199.45L127.907 198.602ZM97.0465 156.823L96.1393 155.041C93.525 156.371 90.9536 157.823 88.433 159.394L89.4912 161.091L90.5494 162.788C92.9715 161.278 95.4421 159.884 97.9536 158.606L97.0465 156.823ZM127.907 198.602L129.515 197.414L98.6552 155.635L97.0465 156.823L95.4378 158.012L126.298 199.791L127.907 198.602ZM103.901 153.656L103.131 151.81C100.771 152.794 98.4385 153.871 96.1393 155.041L97.0465 156.823L97.9536 158.606C100.162 157.482 102.403 156.447 104.67 155.502L103.901 153.656ZM124.158 207.312L125.996 208.1C128.328 202.66 130.837 197.242 133.523 191.864L131.734 190.97L129.944 190.077C127.224 195.524 124.682 201.013 122.32 206.525L124.158 207.312ZM103.901 153.656L102.297 154.852L130.13 192.166L131.734 190.97L133.337 189.775L105.504 152.46L103.901 153.656ZM131.734 190.97L133.523 191.864C134.666 189.576 135.841 187.295 137.047 185.023L135.281 184.085L133.515 183.146C132.292 185.448 131.102 187.759 129.944 190.077L131.734 190.97ZM110.542 151.163L109.906 149.267C107.626 150.031 105.366 150.879 103.131 151.81L103.901 153.656L104.67 155.502C106.817 154.608 108.987 153.794 111.177 153.06L110.542 151.163ZM135.281 184.085L136.88 182.883L112.141 149.962L110.542 151.163L108.943 152.365L133.682 185.286L135.281 184.085ZM117.465 149.121L116.969 147.183C114.597 147.79 112.241 148.485 109.906 149.267L110.542 151.163L111.177 153.06C113.419 152.308 115.682 151.641 117.961 151.059L117.465 149.121ZM135.281 184.085L137.047 185.023C138.161 182.927 139.301 180.838 140.469 178.758L138.725 177.779L136.981 176.8C135.798 178.907 134.643 181.023 133.515 183.146L135.281 184.085ZM138.725 177.779L140.469 178.758C146.264 168.436 152.73 158.325 159.866 148.558L158.251 147.378L156.636 146.198C149.404 156.098 142.852 166.343 136.981 176.8L138.725 177.779ZM117.465 149.121L115.859 150.313L137.119 178.97L138.725 177.779L140.332 176.587L119.071 147.929L117.465 149.121ZM143.06 170.011L141.341 168.988C135.714 178.443 130.636 188.052 126.095 197.754L127.907 198.602L129.718 199.45C134.204 189.866 139.219 180.374 144.778 171.034L143.06 170.011ZM125.734 147.378L125.405 145.405C122.576 145.877 119.761 146.469 116.969 147.183L117.465 149.121L117.961 151.059C120.642 150.373 123.345 149.803 126.062 149.351L125.734 147.378ZM143.06 170.011L144.648 168.796L127.322 146.162L125.734 147.378L124.146 148.594L141.472 171.227L143.06 170.011ZM131.734 146.566L131.526 144.577C129.48 144.791 127.439 145.067 125.405 145.405L125.734 147.378L126.062 149.351C128.015 149.026 129.976 148.761 131.941 148.556L131.734 146.566ZM146.687 164.063L144.99 163.003C143.749 164.991 142.533 166.986 141.341 168.988L143.06 170.011L144.778 171.034C145.955 169.056 147.157 167.085 148.383 165.122L146.687 164.063ZM131.734 146.566L130.213 147.866L145.166 165.362L146.687 164.063L148.207 162.763L133.254 145.267L131.734 146.566ZM190.77 108.064L189.341 106.665C173.641 122.691 160.048 139.794 148.471 157.549L150.146 158.642L151.821 159.734C163.258 142.194 176.686 125.298 192.199 109.464L190.77 108.064ZM150.146 158.642L148.471 157.549C147.29 159.361 146.129 161.179 144.99 163.003L146.687 164.063L148.383 165.122C149.508 163.32 150.655 161.523 151.821 159.734L150.146 158.642ZM158.251 147.378L158.58 145.405C152.544 144.399 146.437 143.946 140.336 144.047L140.368 146.046L140.401 148.046C146.261 147.95 152.126 148.385 157.922 149.351L158.251 147.378ZM140.368 146.046L140.336 144.047C137.395 144.095 134.456 144.272 131.526 144.577L131.734 146.566L131.941 148.556C134.754 148.262 137.577 148.093 140.401 148.046L140.368 146.046ZM150.146 158.642L151.726 157.415L141.948 144.82L140.368 146.046L138.789 147.273L148.566 159.868L150.146 158.642Z" fill="#CF6038"/>
</svg>
